<svg width="1024" height="1024" viewBox="0 0 1024 1024" fill="none" xmlns="http://www.w3.org/2000/svg">
  <rect width="1024" height="1024" rx="72" fill="#E9F1F7"/>
  <circle cx="512" cy="360" r="252" fill="#CFE0EE"/>
  <path d="M298 876C320 712 399 624 512 624C625 624 704 712 726 876H298Z" fill="#1F5F78"/>
  <path d="M372 642C372 592.294 412.294 552 462 552H562C611.706 552 652 592.294 652 642V688H372V642Z" fill="#F5C7AB"/>
  <path d="M622 478C622 548.692 573.692 606 503 606H521C450.308 606 402 548.692 402 478V346C402 275.308 450.308 218 521 218H503C573.692 218 622 275.308 622 346V478Z" fill="#FFD9C4"/>
  <path d="M664 364C664 297.726 610.274 244 544 244H476C409.726 244 356 297.726 356 364V414H398V348C398 310.445 428.445 280 466 280H556C593.555 280 624 310.445 624 348V414H664V364Z" fill="#23324D"/>
  <path d="M396 414C396 320.664 471.664 245 565 245H598C584.048 215.17 552.803 194 516.5 194H484C387.902 194 310 271.902 310 368V446H396V414Z" fill="#23324D"/>
  <ellipse cx="462" cy="418" rx="22" ry="14" fill="#23324D"/>
  <ellipse cx="572" cy="418" rx="22" ry="14" fill="#23324D"/>
  <path d="M464 510C496.667 537.333 530.333 537.333 565 510" stroke="#D47F72" stroke-width="18" stroke-linecap="round"/>
  <path d="M296 878C318.2 714.8 390.6 622 513 622C635.4 622 707.8 714.8 730 878H640C624 776.667 581.667 726 513 726C444.333 726 402 776.667 386 878H296Z" fill="#143847" fill-opacity="0.45"/>
  <rect x="426" y="684" width="172" height="224" rx="24" fill="#F6FAFC"/>
</svg>

